<svg width="33" height="31" viewBox="0 0 33 31" fill="none" xmlns="http://www.w3.org/2000/svg">
<path id="Vector" d="M9.51928 14.6471L9.51928 7.82353C9.51928 4.055 12.6447 1 16.5 1C20.3553 0.999999 23.4807 4.055 23.4807 7.82353V14.6471M4.5867 30H28.4133C30.1882 30 31.0757 30 31.5942 29.4492C32.1127 28.8984 32.039 28.0339 31.8916 26.3049L30.9949 15.7863C30.7417 12.8165 30.6151 11.3316 29.6132 10.4305C28.6113 9.52941 27.087 9.52941 24.0382 9.52941H8.96175C5.91304 9.52941 4.38868 9.52941 3.3868 10.4305C2.38492 11.3316 2.25833 12.8165 2.00515 15.7863L1.1084 26.3049C0.961 28.0339 0.887299 28.8984 1.4058 29.4492C1.92429 30 2.81176 30 4.5867 30Z" stroke="#222222" stroke-linecap="round"/>
</svg>
