<svg width="391" height="392" viewBox="0 0 391 392" fill="none" xmlns="http://www.w3.org/2000/svg">
<rect width="391" height="392" fill="white"/>
<rect x="195.196" y="0.0344238" width="52" height="276" transform="rotate(45 195.196 0.0344238)" fill="url(#paint0_linear_1_8)"/>
<rect y="196.77" width="52" height="276" transform="rotate(-45 0 196.77)" fill="url(#paint1_linear_1_8)"/>
<rect x="354.162" y="160" width="52" height="276" transform="rotate(45 354.162 160)" fill="url(#paint2_linear_1_8)"/>
<path d="M200.366 107.085L241.449 66.0025L247.729 72.2823L235.698 120.232L232.411 116.945L280.067 104.62L286.347 110.9L245.323 152.042L238.104 144.823L267.801 115.009L269.327 116.534L229.242 126.57L225.838 123.166L235.639 82.8465L237.4 84.6072L207.644 114.363L200.366 107.085ZM266.514 173.233L282.771 156.976L279.778 163.374L291.458 116.011L299.615 124.169L290.166 162.258L285.589 157.681L323.796 148.349L331.308 155.861L283.945 167.541L290.401 164.606L274.144 180.863L266.514 173.233Z" fill="url(#paint3_linear_1_8)"/>
<path d="M166.34 251.235C164.021 253.554 161.504 255.307 158.789 256.495C156.073 257.683 153.315 258.32 150.515 258.405C147.687 258.461 144.957 257.966 142.327 256.92C139.668 255.845 137.236 254.204 135.03 251.998C132.824 249.792 131.197 247.374 130.151 244.743C129.076 242.085 128.581 239.355 128.666 236.555C128.722 233.727 129.345 230.955 130.533 228.239C131.72 225.524 133.46 223.021 135.751 220.73C138.07 218.411 140.573 216.671 143.26 215.512C145.976 214.324 148.748 213.701 151.576 213.645C154.376 213.56 157.106 214.055 159.764 215.13C162.395 216.176 164.813 217.803 167.019 220.009C169.225 222.215 170.866 224.647 171.941 227.306C173.015 229.965 173.51 232.694 173.426 235.494C173.341 238.294 172.704 241.052 171.516 243.767C170.357 246.454 168.631 248.944 166.34 251.235ZM161.461 246.44C162.96 244.941 164.092 243.301 164.855 241.519C165.619 239.737 166.001 237.913 166.001 236.046C165.973 234.151 165.591 232.327 164.855 230.573C164.12 228.763 162.989 227.094 161.461 225.567C159.934 224.039 158.279 222.922 156.497 222.215C154.716 221.451 152.891 221.069 151.024 221.069C149.129 221.041 147.291 221.409 145.509 222.172C143.727 222.936 142.087 224.067 140.588 225.567C139.089 227.066 137.957 228.706 137.193 230.488C136.458 232.242 136.09 234.08 136.09 236.003C136.09 237.87 136.458 239.709 137.193 241.519C137.929 243.273 139.06 244.913 140.588 246.44C142.087 247.939 143.727 249.071 145.509 249.834C147.319 250.57 149.172 250.952 151.067 250.98C152.934 250.98 154.758 250.598 156.54 249.834C158.322 249.071 159.962 247.939 161.461 246.44ZM187.715 229.012L158.016 199.313L170.999 186.331C174.223 183.106 177.674 180.9 181.351 179.712C185.028 178.524 188.648 178.355 192.212 179.203C195.776 180.052 199.057 181.975 202.055 184.973C205.025 187.943 206.948 191.224 207.825 194.816C208.673 198.38 208.504 202 207.316 205.677C206.128 209.354 203.922 212.805 200.697 216.029L187.715 229.012ZM188.563 218.829L195.776 211.617C198.01 209.382 199.509 207.035 200.273 204.574C201.065 202.085 201.136 199.639 200.485 197.234C199.863 194.802 198.533 192.567 196.497 190.531C194.432 188.466 192.198 187.137 189.794 186.543C187.389 185.892 184.943 185.963 182.454 186.755C179.993 187.519 177.645 189.018 175.411 191.252L168.199 198.465L188.563 218.829ZM210.505 171.517L225.269 156.752L229.809 161.292L215.045 176.056L210.505 171.517ZM223.657 183.82L240.416 167.062L245.04 171.686L222.766 193.96L193.068 164.262L214.748 142.582L219.372 147.206L203.208 163.371L223.657 183.82Z" fill="url(#paint4_linear_1_8)"/>
<defs>
<linearGradient id="paint0_linear_1_8" x1="204.933" y1="-26.0141" x2="247.713" y2="328.6" gradientUnits="userSpaceOnUse">
<stop stop-color="#58248C"/>
<stop offset="1" stop-color="#4C28DC"/>
</linearGradient>
<linearGradient id="paint1_linear_1_8" x1="8.32232" y1="246.43" x2="60.6482" y2="533.515" gradientUnits="userSpaceOnUse">
<stop stop-color="#5027C5"/>
<stop offset="1" stop-color="#DF1818"/>
</linearGradient>
<linearGradient id="paint2_linear_1_8" x1="359.704" y1="162.236" x2="388.342" y2="384.621" gradientUnits="userSpaceOnUse">
<stop stop-color="#1844DF"/>
<stop offset="1" stop-color="#A71E5D"/>
</linearGradient>
<linearGradient id="paint3_linear_1_8" x1="299.148" y1="92.7297" x2="227.73" y2="164.147" gradientUnits="userSpaceOnUse">
<stop stop-color="#58248C"/>
<stop offset="0.9999" stop-color="#5027C5"/>
<stop offset="1" stop-opacity="0"/>
</linearGradient>
<linearGradient id="paint4_linear_1_8" x1="156.851" y1="177.851" x2="208.47" y2="229.47" gradientUnits="userSpaceOnUse">
<stop stop-color="#58248C"/>
<stop offset="1" stop-color="#1844DF"/>
</linearGradient>
</defs>
</svg>
