<svg width="29" height="29" viewBox="0 0 29 29" fill="none" xmlns="http://www.w3.org/2000/svg">
<g id="Vector">
<path d="M1 11.5C1 8.67157 1 7.25736 1.87868 6.37868C2.75736 5.5 4.17157 5.5 7 5.5H22C24.8284 5.5 26.2426 5.5 27.1213 6.37868C28 7.25736 28 8.67157 28 11.5H1Z" fill="#7E869E" fill-opacity="0.25"/>
<path d="M7 16C7 15.2929 7 14.9393 7.21967 14.7197C7.43934 14.5 7.79289 14.5 8.5 14.5H11.5C12.2071 14.5 12.5607 14.5 12.7803 14.7197C13 14.9393 13 15.2929 13 16C13 16.7071 13 17.0607 12.7803 17.2803C12.5607 17.5 12.2071 17.5 11.5 17.5H8.5C7.79289 17.5 7.43934 17.5 7.21967 17.2803C7 17.0607 7 16.7071 7 16Z" fill="#222222"/>
<path d="M7 22C7 21.2929 7 20.9393 7.21967 20.7197C7.43934 20.5 7.79289 20.5 8.5 20.5H11.5C12.2071 20.5 12.5607 20.5 12.7803 20.7197C13 20.9393 13 21.2929 13 22C13 22.7071 13 23.0607 12.7803 23.2803C12.5607 23.5 12.2071 23.5 11.5 23.5H8.5C7.79289 23.5 7.43934 23.5 7.21967 23.2803C7 23.0607 7 22.7071 7 22Z" fill="#222222"/>
<path d="M16 16C16 15.2929 16 14.9393 16.2197 14.7197C16.4393 14.5 16.7929 14.5 17.5 14.5H20.5C21.2071 14.5 21.5607 14.5 21.7803 14.7197C22 14.9393 22 15.2929 22 16C22 16.7071 22 17.0607 21.7803 17.2803C21.5607 17.5 21.2071 17.5 20.5 17.5H17.5C16.7929 17.5 16.4393 17.5 16.2197 17.2803C16 17.0607 16 16.7071 16 16Z" fill="#222222"/>
<path d="M16 22C16 21.2929 16 20.9393 16.2197 20.7197C16.4393 20.5 16.7929 20.5 17.5 20.5H20.5C21.2071 20.5 21.5607 20.5 21.7803 20.7197C22 20.9393 22 21.2929 22 22C22 22.7071 22 23.0607 21.7803 23.2803C21.5607 23.5 21.2071 23.5 20.5 23.5H17.5C16.7929 23.5 16.4393 23.5 16.2197 23.2803C16 23.0607 16 22.7071 16 22Z" fill="#222222"/>
<path d="M28 11.5H1M28 11.5C28 8.67157 28 7.25736 27.1213 6.37868C26.2426 5.5 24.8284 5.5 22 5.5M28 11.5V22C28 24.8284 28 26.2426 27.1213 27.1213C26.2426 28 24.8284 28 22 28H7C4.17157 28 2.75736 28 1.87868 27.1213C1 26.2426 1 24.8284 1 22V11.5M1 11.5C1 8.67157 1 7.25736 1.87868 6.37868C2.75736 5.5 4.17157 5.5 7 5.5M22 5.5H7M22 5.5V1M7 5.5V1M8.5 17.5H11.5C12.2071 17.5 12.5607 17.5 12.7803 17.2803C13 17.0607 13 16.7071 13 16C13 15.2929 13 14.9393 12.7803 14.7197C12.5607 14.5 12.2071 14.5 11.5 14.5H8.5C7.79289 14.5 7.43934 14.5 7.21967 14.7197C7 14.9393 7 15.2929 7 16C7 16.7071 7 17.0607 7.21967 17.2803C7.43934 17.5 7.79289 17.5 8.5 17.5ZM8.5 23.5H11.5C12.2071 23.5 12.5607 23.5 12.7803 23.2803C13 23.0607 13 22.7071 13 22C13 21.2929 13 20.9393 12.7803 20.7197C12.5607 20.5 12.2071 20.5 11.5 20.5H8.5C7.79289 20.5 7.43934 20.5 7.21967 20.7197C7 20.9393 7 21.2929 7 22C7 22.7071 7 23.0607 7.21967 23.2803C7.43934 23.5 7.79289 23.5 8.5 23.5ZM17.5 17.5H20.5C21.2071 17.5 21.5607 17.5 21.7803 17.2803C22 17.0607 22 16.7071 22 16C22 15.2929 22 14.9393 21.7803 14.7197C21.5607 14.5 21.2071 14.5 20.5 14.5H17.5C16.7929 14.5 16.4393 14.5 16.2197 14.7197C16 14.9393 16 15.2929 16 16C16 16.7071 16 17.0607 16.2197 17.2803C16.4393 17.5 16.7929 17.5 17.5 17.5ZM17.5 23.5H20.5C21.2071 23.5 21.5607 23.5 21.7803 23.2803C22 23.0607 22 22.7071 22 22C22 21.2929 22 20.9393 21.7803 20.7197C21.5607 20.5 21.2071 20.5 20.5 20.5H17.5C16.7929 20.5 16.4393 20.5 16.2197 20.7197C16 20.9393 16 21.2929 16 22C16 22.7071 16 23.0607 16.2197 23.2803C16.4393 23.5 16.7929 23.5 17.5 23.5Z" stroke="black" stroke-linecap="round"/>
</g>
</svg>
